<?xml version="1.0" standalone="no"?>
<!DOCTYPE svg PUBLIC "-//W3C//DTD SVG 20010904//EN"
 "http://www.w3.org/TR/2001/REC-SVG-20010904/DTD/svg10.dtd">
<svg version="1.0" xmlns="http://www.w3.org/2000/svg"
 width="1080.000000pt" height="1040.000000pt" viewBox="0 0 1080.000000 1040.000000"
 preserveAspectRatio="xMidYMid meet">

<g transform="translate(0.000000,1040.000000) scale(0.100000,-0.100000)"
fill="#000000" stroke="none">
<path d="M5617 9739 c-8 -13 -18 -46 -22 -72 -10 -70 -6 -404 5 -537 6 -63 13
-148 17 -188 3 -40 9 -75 14 -77 4 -3 20 22 35 55 43 96 58 74 28 -43 -8 -34
-22 -71 -30 -82 -15 -20 -16 -19 -45 15 -42 49 -89 147 -89 184 0 18 -7 41
-15 52 -32 47 -41 244 -17 413 6 46 16 89 22 96 6 8 10 29 8 47 -3 31 -5 28
-25 -32 -37 -111 -48 -180 -47 -315 2 -201 39 -322 138 -449 27 -35 46 -70 46
-85 0 -38 15 -16 51 74 44 110 61 216 62 380 1 196 -19 334 -70 485 -33 95
-46 111 -66 79z m33 -75 c0 -12 7 -35 15 -50 8 -16 15 -47 15 -69 0 -23 5 -46
12 -53 7 -7 13 -41 13 -82 0 -39 4 -70 9 -70 5 0 6 -36 4 -80 -3 -46 -1 -83 5
-87 5 -3 7 -25 4 -48 -8 -54 -75 -202 -86 -189 -13 14 -30 420 -26 609 2 94 5
172 5 175 2 15 30 -37 30 -56z"/>
<path d="M7480 9520 c0 -5 5 -10 10 -10 6 0 10 5 10 10 0 6 -4 10 -10 10 -5 0
-10 -4 -10 -10z"/>
<path d="M4505 9430 c3 -5 16 -15 28 -21 22 -12 22 -12 3 10 -19 21 -43 30
-31 11z"/>
<path d="M4560 9396 c0 -9 72 -78 77 -73 10 11 99 -41 110 -65 7 -13 12 -17
12 -10 1 18 31 15 67 -7 20 -12 37 -35 49 -67 33 -89 46 -116 51 -111 3 3 -7
33 -21 68 -33 83 -29 93 29 73 41 -14 47 -20 56 -57 26 -104 59 -210 59 -192
0 11 -10 63 -24 115 -13 52 -21 98 -17 102 14 14 104 -23 110 -44 3 -12 10
-17 20 -13 15 6 63 -26 120 -78 27 -27 32 -38 33 -81 1 -28 4 -40 6 -26 9 56
13 57 59 5 30 -33 44 -59 44 -77 0 -19 5 -28 16 -28 55 0 76 -290 34 -468 -22
-90 -63 -178 -92 -196 -28 -17 -30 -1 -9 64 11 33 23 78 25 98 5 30 2 26 -13
-18 -11 -34 -23 -54 -31 -52 -7 2 -17 -3 -21 -9 -12 -20 -37 7 -51 55 -7 22
-35 74 -63 114 -27 40 -54 81 -59 90 -15 28 -151 132 -227 175 -26 15 -30 20
-18 27 10 7 6 11 -19 16 -33 7 -93 65 -115 113 -6 13 -24 37 -39 53 -15 16
-30 38 -33 50 -4 11 -18 36 -31 55 -13 20 -24 44 -24 54 0 11 -4 19 -8 19 -8
0 -55 95 -87 174 -8 22 -18 37 -21 33 -9 -9 61 -208 102 -289 89 -177 158
-261 269 -328 143 -86 304 -255 351 -366 9 -22 22 -64 29 -94 12 -53 44 -138
85 -228 11 -23 20 -47 20 -52 0 -6 -21 -11 -47 -12 -37 -1 -41 -2 -15 -5 103
-13 54 -151 -78 -218 -143 -72 -385 -82 -452 -18 -55 52 -27 123 69 180 41 24
59 27 236 38 l192 12 -241 -1 c-181 -1 -240 -4 -237 -13 3 -6 -9 -19 -25 -27
-71 -37 -97 -110 -64 -178 12 -23 19 -45 16 -50 -8 -13 -110 -9 -187 8 -143
32 -276 118 -352 227 -35 51 -40 65 -40 115 l0 57 90 -2 c100 -2 214 -28 413
-94 68 -22 126 -38 128 -36 5 5 -286 122 -328 132 -16 4 -28 10 -28 14 0 3 11
50 25 104 45 178 58 303 52 512 -3 149 -9 206 -25 267 -26 97 -63 176 -108
229 -19 22 -34 50 -34 61 0 36 -79 104 -142 123 -97 28 -164 -5 -187 -94 -9
-32 -46 -366 -71 -625 -9 -97 -11 -103 -94 -270 -46 -94 -112 -212 -145 -263
-34 -51 -63 -107 -66 -125 -4 -25 -3 -27 3 -9 11 36 25 35 46 -3 18 -34 52
-56 85 -56 37 0 117 52 158 103 57 72 120 206 139 297 19 90 14 185 -12 229
-15 26 -16 35 -6 49 25 36 44 89 54 152 12 74 4 305 -12 362 -18 63 21 102
112 114 87 11 182 -71 227 -195 77 -213 65 -586 -31 -913 l-11 -37 -153 0
c-84 -1 -163 -5 -176 -10 -74 -29 -180 -114 -279 -226 -57 -64 -117 -137 -134
-161 -16 -24 -36 -44 -42 -44 -7 0 -13 -7 -13 -16 0 -9 -33 -62 -73 -118 -158
-219 -214 -326 -223 -427 -4 -36 -2 -81 4 -103 10 -36 8 -45 -25 -113 -32 -65
-37 -83 -41 -173 -3 -56 -7 -99 -11 -98 -3 2 -32 31 -64 64 l-58 62 12 93 c28
233 -32 534 -146 728 -84 142 -176 221 -270 233 -22 3 -58 17 -79 32 -52 35
-168 70 -204 61 -58 -14 -73 -47 -73 -156 0 -137 52 -325 133 -482 l41 -78
-13 -71 c-26 -146 -3 -323 58 -451 22 -45 43 -97 47 -116 10 -45 145 -319 219
-446 63 -106 171 -273 221 -340 27 -37 190 -212 183 -197 -2 4 -18 35 -36 69
-39 75 -41 107 -8 128 30 20 113 11 171 -18 183 -91 573 -453 725 -674 86
-123 116 -239 69 -264 -30 -16 -90 -4 -157 30 -63 32 -267 199 -435 354 -199
185 -123 89 125 -157 297 -295 382 -395 547 -641 127 -190 347 -468 464 -588
82 -83 163 -137 312 -208 128 -61 126 -59 153 -145 9 -28 6 -38 -28 -88 -77
-114 -97 -215 -63 -322 18 -59 88 -159 124 -179 57 -30 148 -87 199 -123 69
-50 176 -104 259 -132 83 -27 90 -19 9 10 -75 27 -218 101 -218 112 0 11 15
10 90 -8 90 -21 449 -30 577 -14 524 64 926 314 973 604 7 47 6 69 -7 109 -22
67 -69 135 -123 175 l-45 35 -5 211 c-4 154 -2 220 7 244 14 37 29 140 19 131
-3 -3 -18 -39 -32 -80 -14 -41 -33 -83 -42 -93 -10 -11 -12 -16 -6 -13 27 16
33 -24 35 -244 l2 -226 -42 -78 c-44 -83 -97 -155 -112 -155 -13 0 -11 111 6
225 16 113 71 382 85 421 18 46 9 50 -12 4 -53 -117 -97 -382 -98 -580 l0
-105 -78 -75 c-134 -128 -312 -216 -512 -251 -301 -53 -618 45 -798 247 -64
71 -112 161 -112 207 0 20 -5 48 -10 63 -6 15 -9 29 -7 31 3 2 38 -5 78 -16
173 -48 272 -63 434 -66 166 -3 164 -2 -20 16 -334 32 -677 151 -842 291 -120
103 -260 271 -344 413 -135 229 -282 438 -383 543 l-61 64 40 -2 c96 -5 115 8
115 73 0 45 -39 138 -88 211 -47 70 -47 70 -26 62 10 -3 -9 20 -42 51 -34 32
-94 95 -133 140 -140 159 -418 386 -574 468 -21 11 -60 37 -87 57 -37 28 -50
33 -54 22 -3 -8 -14 -14 -25 -14 -23 0 -61 -45 -61 -72 0 -37 -25 -12 -103
103 -89 129 -111 165 -229 369 -150 258 -180 347 -130 388 50 39 105 -8 151
-128 82 -212 239 -477 342 -575 59 -56 56 -46 -10 35 -149 183 -302 483 -381
745 -63 208 -89 347 -110 590 -14 155 -42 290 -74 361 -23 50 -24 58 -11 76
40 58 123 75 194 39 147 -75 287 -371 322 -681 13 -114 7 -266 -11 -300 -16
-30 -69 -50 -132 -50 -38 0 -49 -3 -38 -10 23 -15 111 -12 144 5 15 8 34 15
40 15 43 0 321 -360 372 -483 31 -73 54 -145 54 -170 0 -10 -10 -22 -22 -27
-17 -6 0 -9 59 -9 81 -1 82 -1 155 -51 68 -47 241 -182 462 -364 53 -43 99
-76 102 -73 14 14 -177 205 -282 281 -18 13 -18 16 -1 69 35 111 123 205 213
229 56 15 56 28 2 28 -109 -1 -229 -115 -244 -232 -7 -52 -13 -56 -49 -32 -34
22 -32 63 4 140 53 113 168 196 291 210 54 6 56 5 110 -38 129 -104 218 -153
335 -183 68 -17 128 -18 235 -5 61 8 79 14 98 35 32 38 28 59 -20 94 -62 45
-180 185 -230 270 l-42 75 -1 110 c0 106 -2 114 -36 186 -41 85 -116 189 -156
216 -30 20 -103 49 -168 65 -22 6 -47 13 -55 16 -8 3 -44 7 -80 10 -35 2 -69
8 -74 13 -17 17 23 84 100 165 42 43 84 96 95 117 11 21 23 38 27 38 4 0 43
-7 87 -16 54 -11 132 -16 240 -16 175 0 261 14 372 58 35 14 67 23 71 19 4 -4
-31 -43 -78 -86 l-85 -79 25 -20 c37 -30 60 -21 90 33 27 49 60 89 60 72 0 -6
-9 -25 -20 -43 -20 -32 -19 -52 1 -52 5 0 20 17 32 38 l22 37 6 -165 c6 -129
12 -186 33 -263 31 -122 106 -267 158 -308 35 -29 36 -31 36 -92 -1 -61 14
-152 33 -192 5 -11 22 -59 39 -107 31 -89 38 -138 20 -138 -31 0 -101 52 -228
168 -193 178 -315 251 -446 268 -68 9 -58 -15 15 -37 138 -41 229 -105 414
-293 182 -185 247 -216 404 -191 44 7 89 16 100 20 39 12 21 25 -36 26 -32 0
-80 4 -107 7 l-49 7 -13 55 c-7 30 -35 120 -63 200 -40 113 -51 158 -51 206 0
49 -4 65 -21 80 -57 51 -141 230 -180 380 -30 119 -33 330 -5 449 43 188 145
298 273 297 86 -1 88 -5 42 -138 -91 -266 -80 -461 39 -702 27 -53 66 -140 87
-193 28 -70 47 -102 67 -115 16 -11 70 -74 120 -141 95 -129 174 -203 262
-246 31 -15 58 -38 70 -57 10 -18 50 -67 88 -109 113 -123 292 -408 396 -631
133 -285 242 -659 242 -830 0 -112 -61 -287 -128 -369 -83 -102 -134 -130
-235 -131 -80 0 -152 22 -256 79 -82 46 -81 45 -81 30 0 -20 83 -88 146 -119
147 -72 284 -61 388 31 20 17 40 28 46 24 5 -3 10 1 10 10 0 9 18 48 39 88 21
40 46 96 56 125 9 28 21 52 26 52 5 0 9 -28 9 -62 0 -68 13 -69 28 -2 15 67
-3 316 -33 449 -28 126 -79 296 -114 383 -99 246 -256 527 -407 728 -30 40
-54 76 -54 80 0 5 -20 31 -45 58 -25 26 -45 52 -45 56 0 4 -11 19 -25 34 -14
15 -27 37 -29 49 -2 12 -11 58 -20 102 -9 44 -16 90 -16 102 0 28 -72 184 -93
201 -9 8 -21 29 -27 48 -8 23 -26 44 -51 59 -48 31 -47 31 -45 0 0 -14 6 -25
13 -25 36 0 183 -330 183 -412 0 -36 -16 -36 -69 2 -66 48 -110 97 -200 223
-46 64 -87 117 -92 117 -4 0 -21 11 -38 25 -22 20 -38 49 -61 122 -17 53 -54
140 -81 194 -50 100 -95 239 -85 264 3 8 1 29 -5 47 -24 84 48 440 97 483 49
43 38 156 -16 164 -27 3 -90 -26 -90 -42 0 -6 8 -3 18 6 22 20 63 30 81 18 15
-10 11 -95 -5 -111 -5 -5 -40 -6 -77 -3 -64 5 -68 7 -62 27 3 12 8 32 10 46 2
14 13 46 24 72 26 61 76 224 96 313 34 152 77 228 190 340 176 173 416 319
770 467 26 10 -5 13 -215 19 l-245 7 -52 -31 c-63 -37 -131 -100 -202 -190
-30 -37 -56 -67 -58 -67 -14 0 49 93 102 149 112 118 285 235 404 272 78 24
194 26 269 6 60 -16 71 -5 15 15 -55 19 -245 16 -308 -4 -185 -60 -331 -165
-450 -322 -71 -95 -109 -190 -251 -631 -38 -117 -50 -143 -52 -118 -2 18 13
93 34 165 77 278 84 303 80 313 -2 6 -7 -3 -11 -20 -4 -16 -19 -68 -35 -115
-44 -132 -67 -216 -90 -330 -29 -144 -39 -182 -50 -175 -5 3 -18 35 -30 71
-27 79 -22 109 26 184 64 101 79 171 79 370 -1 156 -3 182 -24 239 -70 198
-279 382 -519 455 -181 56 -227 73 -304 112 -49 24 -88 42 -88 40z m-322 -110
c59 -40 55 -53 -20 -52 -47 0 -74 -6 -107 -23 -43 -22 -45 -22 -58 -5 -22 30
-16 70 15 94 38 30 111 24 170 -14z m-187 -198 c21 -126 17 -359 -7 -428 -20
-57 -42 -73 -69 -50 -8 7 -15 29 -15 49 0 36 47 456 56 499 8 40 21 15 35 -70z
m2261 -117 c42 -1 79 -5 83 -10 6 -11 -98 -61 -126 -61 -10 0 -37 -13 -61 -29
-24 -16 -58 -32 -75 -36 -18 -3 -36 -13 -41 -21 -8 -15 -97 -74 -112 -74 -5 0
-24 -14 -42 -30 -18 -17 -50 -43 -72 -57 -21 -15 -54 -42 -73 -59 -19 -18 -39
-36 -44 -41 -5 -4 -21 -23 -35 -41 -39 -49 -47 -28 -13 36 36 67 88 155 98
162 3 3 15 18 25 34 50 78 162 185 232 221 35 19 49 20 110 14 38 -5 104 -8
146 -8z m-2305 -419 c22 -14 43 -81 43 -139 0 -133 -74 -307 -173 -409 -48
-48 -71 -64 -101 -70 -36 -6 -42 -4 -68 25 -15 17 -28 42 -28 56 0 13 24 57
54 99 64 89 144 242 180 346 15 41 29 81 31 88 5 13 43 16 62 4z m1303 -353
c0 -5 -4 -9 -10 -9 -5 0 -10 7 -10 16 0 8 5 12 10 9 6 -3 10 -10 10 -16z
m-1216 -215 c9 -23 -21 -194 -48 -272 -39 -117 -126 -253 -287 -452 -115 -144
-193 -220 -226 -221 -105 -4 -203 34 -203 78 0 75 332 546 514 729 135 135
231 188 250 138z m93 -194 c58 -64 113 -102 194 -134 112 -44 149 -50 309 -51
86 0 182 -7 215 -14 75 -16 177 -8 268 23 48 16 67 19 67 10 0 -24 -104 -106
-184 -144 -118 -57 -192 -74 -316 -73 -164 1 -397 51 -435 93 -24 26 -35 25
-35 -4 0 -15 10 -30 26 -41 40 -26 17 -41 -40 -25 -88 24 -64 -5 27 -34 16 -5
16 -8 3 -33 -9 -16 -54 -68 -101 -118 -60 -63 -89 -102 -97 -130 -6 -22 -14
-43 -17 -46 -3 -4 -107 -9 -231 -13 l-225 -7 87 88 c191 193 362 454 404 613
23 91 23 90 30 90 3 0 26 -23 51 -50z m-1654 -12 c31 -12 57 -27 56 -33 0 -5
-18 -25 -39 -43 -37 -32 -40 -32 -72 -19 -75 31 -126 103 -85 121 20 9 78 -2
140 -26z m-110 -132 c18 -14 45 -29 60 -35 36 -14 43 -36 52 -164 7 -102 6
-109 -11 -105 -25 5 -57 63 -104 196 -52 147 -52 150 3 108z m157 -138 c6 -29
15 -107 20 -173 13 -172 14 -167 -11 -163 -20 3 -21 9 -24 163 -1 88 -5 175
-10 193 -5 20 -4 32 3 32 6 0 16 -24 22 -52z m56 -509 c22 -136 50 -251 86
-347 11 -29 18 -56 15 -59 -3 -2 -21 1 -41 8 -27 10 -44 10 -71 2 -51 -16 -67
5 -90 119 -33 161 -21 380 22 424 13 13 18 13 37 1 17 -12 24 -37 42 -148z
m760 11 c30 -12 27 -16 -29 -49 -39 -24 -39 -24 -51 30 -9 43 7 46 80 19z
m714 10 c164 -12 250 -28 257 -47 8 -21 -27 -81 -65 -113 -44 -36 -94 -50
-183 -50 -59 -1 -70 -3 -55 -12 10 -6 47 -13 82 -16 l64 -5 0 -64 c0 -201 166
-497 365 -651 41 -31 72 -59 69 -61 -9 -10 -172 82 -231 129 -106 86 -200 240
-248 407 -14 48 -32 94 -39 101 -19 19 -44 4 -56 -35 -7 -20 -21 -38 -36 -43
-38 -15 -192 -39 -297 -46 -118 -8 -116 -24 3 -28 68 -2 85 -6 97 -22 39 -52
103 -236 103 -298 0 -17 -16 -53 -40 -88 -39 -59 -60 -112 -60 -155 0 -32 -11
-29 -85 21 -36 25 -99 61 -140 81 -85 40 -94 56 -70 124 23 66 19 127 -16 226
-41 117 -38 192 10 283 47 88 63 99 151 110 89 10 79 16 -57 31 -224 26 -310
92 -195 150 147 73 350 95 672 71z m385 -122 c67 -70 125 -171 151 -265 19
-70 15 -93 -18 -93 -39 -1 -104 -36 -129 -71 -46 -65 -29 -192 40 -294 47 -70
44 -72 -15 -10 -143 149 -284 439 -284 584 0 33 5 38 50 64 49 26 110 102 110
134 0 29 37 10 95 -49z m-1131 -57 c23 -26 100 -58 159 -66 26 -4 47 -9 47
-12 0 -3 -18 -25 -39 -50 -49 -55 -74 -127 -74 -213 0 -59 23 -159 43 -185 17
-22 39 -118 33 -146 -7 -34 -30 -38 -42 -6 -12 29 -122 197 -180 272 l-46 60
1 85 c1 113 44 280 73 280 4 0 16 -9 25 -19z m705 -378 c15 -101 22 -217 13
-228 -4 -6 -28 -23 -55 -38 -52 -31 -48 -34 -68 53 -15 70 -51 161 -79 201
-12 16 -21 32 -19 34 5 5 160 42 181 44 13 1 18 -14 27 -66z m581 -15 c23 -86
77 -167 224 -332 l70 -79 -24 -19 c-53 -43 -174 3 -277 104 -135 133 -168 301
-71 355 45 25 66 17 78 -29z m-504 -133 c20 -31 35 -57 33 -59 -13 -11 -69
-23 -74 -16 -3 4 -4 23 -3 42 1 18 -2 45 -6 61 -13 45 10 32 50 -28z m2790
-2926 c-66 -281 -354 -511 -736 -589 -271 -55 -538 -27 -730 77 -81 44 -168
112 -210 165 -47 58 -92 153 -88 185 3 25 5 23 40 -30 103 -155 272 -268 494
-329 68 -19 106 -22 269 -22 172 -1 198 1 275 23 203 58 342 135 469 261 112
111 147 172 197 339 4 12 7 12 20 0 13 -14 13 -23 0 -80z m52 -12 c-6 -38 -28
-31 -28 8 0 33 2 36 15 25 9 -7 15 -22 13 -33z m22 -63 c0 -8 -4 -12 -10 -9
-5 3 -10 10 -10 16 0 5 5 9 10 9 6 0 10 -7 10 -16z m-31 -25 c15 -44 14 -56
-9 -79 -16 -16 -25 -18 -40 -10 -11 6 -20 14 -20 19 0 17 41 101 49 101 5 0
14 -14 20 -31z m-61 -134 c17 -37 15 -50 -11 -81 -19 -22 -29 -26 -51 -20 -40
10 -41 30 -4 80 38 52 50 56 66 21z m-1770 -17 c14 -37 6 -50 -26 -42 -23 7
-26 15 -16 52 9 32 28 27 42 -10z m1830 20 c-6 -18 -28 -21 -28 -4 0 9 7 16
16 16 9 0 14 -5 12 -12z m-1855 -94 c3 -4 2 -16 -4 -26 -13 -24 -35 -9 -26 16
7 17 19 21 30 10z m108 -56 c44 -49 45 -55 22 -80 -23 -26 -78 -24 -97 4 -28
40 -15 118 20 118 9 0 34 -19 55 -42z m1577 13 c8 -53 -57 -93 -89 -55 -12 15
-9 21 26 51 43 37 58 38 63 4z m52 0 c0 -6 -4 -13 -10 -16 -5 -3 -10 1 -10 9
0 9 5 16 10 16 6 0 10 -4 10 -9z m-170 -80 c0 -27 -28 -53 -54 -49 -30 4 -26
25 9 48 38 25 45 25 45 1z m-1318 -52 c58 -37 63 -64 16 -83 -63 -27 -127 30
-100 89 15 32 25 31 84 -6z m1198 -12 c0 -21 -37 -50 -55 -44 -23 9 -18 25 13
41 34 19 42 19 42 3z m-1312 -31 l4 -28 -31 18 c-32 19 -36 26 -24 38 17 17
48 0 51 -28z m1362 14 c0 -5 -4 -10 -10 -10 -5 0 -10 5 -10 10 0 6 5 10 10 10
6 0 10 -4 10 -10z m-1064 -61 c3 -6 -2 -21 -10 -34 -36 -55 -125 -9 -98 50 11
24 12 24 57 9 25 -9 48 -20 51 -25z m891 8 c-15 -22 -66 -31 -68 -12 -2 12 63
45 74 38 5 -3 2 -15 -6 -26z m-767 -43 c13 -12 13 -16 0 -28 -26 -25 -56 -28
-80 -8 -17 14 -21 24 -15 41 6 20 11 22 43 16 21 -3 44 -13 52 -21z m650 17
c0 -15 -28 -33 -46 -29 -24 4 -29 25 -7 31 31 8 53 7 53 -2z m-902 -25 c3 -15
0 -17 -20 -11 -30 10 -31 11 -23 25 10 17 39 8 43 -14z m776 -19 c-7 -20 -38
-30 -65 -22 -32 11 -19 39 21 46 40 6 53 -1 44 -24z m-386 9 c12 -13 -15 -41
-42 -44 -33 -4 -56 13 -56 41 0 17 5 19 45 14 26 -2 49 -8 53 -11z m137 -6
c10 -16 -14 -40 -39 -40 -31 0 -50 16 -43 34 7 18 72 23 82 6z m120 0 c9 -14
-13 -40 -34 -40 -26 0 -44 17 -38 34 7 18 62 22 72 6z m-505 -26 c0 -17 -22
-14 -28 4 -2 7 3 12 12 12 9 0 16 -7 16 -16z m300 -25 c0 -12 -7 -19 -19 -19
-28 0 -37 21 -16 36 22 16 35 10 35 -17z m-155 12 c3 -5 1 -13 -5 -16 -15 -9
-43 3 -35 15 8 13 32 13 40 1z m275 -11 c0 -5 -4 -10 -10 -10 -5 0 -10 5 -10
10 0 6 5 10 10 10 6 0 10 -4 10 -10z"/>
<path d="M4603 9230 c34 -43 27 -36 117 -112 41 -35 82 -70 91 -78 9 -8 58
-51 108 -95 86 -75 231 -240 231 -262 0 -6 7 -16 16 -24 8 -7 29 -38 44 -68
16 -31 29 -51 30 -44 0 7 -13 35 -30 63 -16 28 -30 57 -30 65 0 8 -8 20 -18
27 -21 15 -82 110 -82 126 0 7 -6 12 -14 12 -13 0 -96 87 -96 102 0 4 -6 8
-14 8 -7 0 -35 20 -62 44 -45 42 -107 94 -259 221 -54 45 -57 46 -32 15z"/>
<path d="M3277 9100 c5 -20 15 -25 26 -13 8 7 -11 33 -23 33 -5 0 -6 -9 -3
-20z"/>
<path d="M5133 9055 c0 -27 2 -38 4 -22 2 15 2 37 0 50 -2 12 -4 0 -4 -28z"/>
<path d="M3237 9070 c-3 -11 -1 -20 4 -20 5 0 9 9 9 20 0 11 -2 20 -4 20 -2 0
-6 -9 -9 -20z"/>
<path d="M3108 9030 c-29 -18 -48 -37 -50 -52 -2 -18 -13 -25 -46 -33 -24 -6
-40 -14 -36 -18 4 -4 -4 -7 -18 -7 -15 0 -35 -12 -51 -30 -15 -16 -32 -30 -38
-30 -6 0 -24 -9 -40 -21 -26 -18 -29 -29 -20 -67 1 -2 43 26 94 60 50 35 134
91 186 124 52 32 99 62 105 66 12 8 -10 38 -28 38 -6 0 -32 -14 -58 -30z"/>
<path d="M8530 9051 c0 -5 7 -12 16 -15 24 -9 28 -7 14 9 -14 17 -30 20 -30 6z"/>
<path d="M8593 9006 c9 -7 17 -18 17 -23 0 -6 6 -16 14 -22 11 -9 15 -8 20 5
8 20 -1 34 -20 34 -8 0 -14 5 -14 10 0 6 -8 10 -17 10 -17 -1 -17 -1 0 -14z"/>
<path d="M5143 8965 c0 -22 2 -30 4 -17 2 12 2 30 0 40 -3 9 -5 -1 -4 -23z"/>
<path d="M8410 8959 c-7 -11 -9 -23 -6 -26 8 -9 36 17 36 33 0 21 -18 17 -30
-7z"/>
<path d="M5292 8865 c0 -16 2 -22 5 -12 2 9 2 23 0 30 -3 6 -5 -1 -5 -18z"/>
<path d="M8440 8880 c0 -5 -8 -7 -17 -4 -15 5 -15 3 2 -11 42 -35 55 -38 55
-11 0 13 -7 27 -16 30 -21 8 -24 8 -24 -4z"/>
<path d="M8560 8846 c0 -28 20 -66 34 -66 9 0 20 9 26 19 13 26 13 31 -4 31
-7 0 -19 7 -26 15 -16 19 -30 19 -30 1z"/>
<path d="M5392 8790 c0 -19 2 -27 5 -17 2 9 2 25 0 35 -3 9 -5 1 -5 -18z"/>
<path d="M2740 8782 c-14 -11 -25 -28 -25 -38 0 -11 -11 -21 -31 -26 -21 -5
-31 -14 -30 -25 1 -14 -5 -17 -24 -15 -20 2 -51 -20 -135 -94 -61 -53 -111
-100 -113 -104 -2 -5 1 -11 7 -14 21 -13 83 25 188 114 196 167 202 172 194
199 l-6 23 -25 -20z"/>
<path d="M5372 8685 c-7 -32 -11 -72 -11 -89 1 -17 8 5 15 49 16 94 13 125 -4
40z"/>
<path d="M8107 8666 c-7 -17 30 -53 41 -41 4 4 1 10 -5 12 -7 3 -13 11 -13 18
0 20 -17 27 -23 11z"/>
<path d="M5622 8630 c0 -14 2 -19 5 -12 2 6 2 18 0 25 -3 6 -5 1 -5 -13z"/>
<path d="M8243 8562 c-17 -11 8 -46 46 -65 47 -24 58 0 19 40 -33 34 -44 38
-65 25z"/>
<path d="M5250 8508 c0 -7 5 -20 10 -28 8 -12 10 -11 10 7 0 12 -4 25 -10 28
-5 3 -10 0 -10 -7z"/>
<path d="M8325 8460 c3 -5 10 -10 16 -10 5 0 9 5 9 10 0 6 -7 10 -16 10 -8 0
-12 -4 -9 -10z"/>
<path d="M2282 8383 c-21 -23 -22 -28 -8 -41 13 -13 19 -12 49 15 32 28 33 31
16 41 -26 17 -31 15 -57 -15z"/>
<path d="M5297 8350 c9 -72 22 -93 22 -37 1 26 -3 47 -8 47 -5 0 -12 8 -14 18
-3 9 -3 -3 0 -28z"/>
<path d="M2200 8303 c-25 -33 -25 -39 2 -46 23 -6 43 5 58 32 6 12 2 19 -16
28 -21 10 -27 8 -44 -14z"/>
<path d="M8496 8321 c-9 -14 102 -111 119 -105 24 10 18 27 -28 72 -40 39 -79
53 -91 33z"/>
<path d="M2152 8248 c-16 -16 -15 -28 3 -28 8 0 15 9 15 20 0 23 -2 24 -18 8z"/>
<path d="M2055 8143 c-22 -24 -33 -46 -33 -65 1 -15 4 -28 8 -28 13 0 70 63
70 77 0 7 5 13 10 13 16 0 12 27 -6 34 -10 4 -27 -7 -49 -31z"/>
<path d="M1947 8006 c-36 -44 -52 -103 -24 -94 29 10 95 138 70 138 -5 0 -25
-20 -46 -44z"/>
<path d="M3601 7880 c-6 -28 -11 -65 -10 -83 0 -18 7 4 15 47 16 88 12 116 -5
36z"/>
<path d="M1800 7754 c0 -8 5 -12 10 -9 6 3 10 10 10 16 0 5 -4 9 -10 9 -5 0
-10 -7 -10 -16z"/>
<path d="M1725 7649 c-10 -15 3 -25 16 -12 7 7 7 13 1 17 -6 3 -14 1 -17 -5z"/>
<path d="M1660 7560 c0 -5 5 -10 10 -10 6 0 10 5 10 10 0 6 -4 10 -10 10 -5 0
-10 -4 -10 -10z"/>
<path d="M5600 7314 c0 -8 5 -12 10 -9 6 4 8 11 5 16 -9 14 -15 11 -15 -7z"/>
<path d="M1495 7250 c3 -5 8 -10 11 -10 2 0 4 5 4 10 0 6 -5 10 -11 10 -5 0
-7 -4 -4 -10z"/>
<path d="M5625 7170 c-3 -5 -1 -10 4 -10 6 0 11 5 11 10 0 6 -2 10 -4 10 -3 0
-8 -4 -11 -10z"/>
<path d="M10170 6708 c-12 -22 -12 -22 6 -6 10 10 15 20 12 24 -4 3 -12 -5
-18 -18z"/>
<path d="M10065 6680 c-3 -5 -1 -10 4 -10 6 0 11 5 11 10 0 6 -2 10 -4 10 -3
0 -8 -4 -11 -10z"/>
<path d="M10020 6635 c-7 -9 -11 -18 -8 -20 3 -3 11 1 18 10 7 9 11 18 8 20
-3 3 -11 -1 -18 -10z"/>
<path d="M9680 6534 c0 -8 5 -12 10 -9 6 4 8 11 5 16 -9 14 -15 11 -15 -7z"/>
<path d="M5503 6533 c9 -2 25 -2 35 0 9 3 1 5 -18 5 -19 0 -27 -2 -17 -5z"/>
<path d="M10400 6049 c0 -5 5 -7 10 -4 6 3 10 8 10 11 0 2 -4 4 -10 4 -5 0
-10 -5 -10 -11z"/>
<path d="M10500 5970 c0 -5 5 -10 10 -10 6 0 10 5 10 10 0 6 -4 10 -10 10 -5
0 -10 -4 -10 -10z"/>
<path d="M5241 5956 c3 -3 36 -25 72 -49 124 -80 224 -191 298 -332 83 -159
138 -216 302 -317 224 -138 317 -274 333 -488 9 -121 25 -95 26 41 1 98 0 102
-41 185 -58 116 -138 199 -298 307 -70 48 -137 95 -148 105 -47 40 -127 147
-166 222 -52 102 -165 219 -264 277 -63 37 -129 65 -114 49z"/>
<path d="M4850 5891 c0 -6 8 -16 18 -23 45 -33 59 -78 66 -213 9 -176 36 -286
101 -415 28 -56 20 -64 -37 -34 -17 9 -53 22 -82 30 -326 90 -385 84 -111 -10
178 -61 341 -131 484 -207 314 -168 560 -410 643 -635 17 -44 22 -81 23 -149
0 -78 -4 -97 -28 -146 -37 -76 -106 -144 -167 -164 -63 -21 -243 -22 -330 -1
-149 34 -307 105 -450 200 -46 31 -86 56 -89 56 -8 0 -146 147 -205 220 -77
94 -158 222 -218 345 -29 59 -54 102 -56 96 -6 -17 43 -152 83 -232 110 -219
336 -463 553 -600 183 -114 361 -163 577 -157 119 3 135 5 187 31 110 54 168
152 183 313 6 64 -1 116 -31 222 -5 17 -2 22 13 22 29 0 62 -28 80 -68 13 -29
17 -67 18 -169 0 -82 3 -126 9 -116 14 25 12 223 -2 271 -7 24 -22 52 -33 63
-26 26 -25 29 16 68 61 57 89 124 89 211 0 88 -7 156 -17 166 -4 4 -7 16 -7
27 0 15 -5 18 -22 14 -18 -4 -31 4 -60 41 -26 32 -34 50 -27 57 10 10 39 -17
65 -61 10 -17 12 -17 27 -2 23 23 21 28 -9 28 -24 0 -26 3 -20 30 5 28 4 30
-19 24 -27 -7 -36 12 -10 22 8 4 15 12 15 20 0 18 -9 18 -31 -2 -25 -23 -42
-8 -35 30 4 24 3 27 -5 14 -14 -24 -41 -23 -37 0 2 11 -1 19 -7 19 -22 1 -35
-10 -35 -28 0 -26 -23 -24 -82 8 -54 30 -62 59 -15 56 18 -1 27 3 27 13 0 8
-9 14 -20 14 -11 0 -20 5 -20 10 0 6 -9 10 -19 10 -26 0 -36 17 -20 36 16 20
3 31 -20 17 -15 -9 -23 -9 -37 2 -18 13 -18 14 0 34 15 17 17 24 7 34 -12 12
-22 3 -35 -28 -2 -6 -9 -5 -17 2 -11 11 -9 15 7 27 10 8 16 18 12 22 -4 4 -14
1 -23 -6 -17 -14 -45 -7 -45 12 0 7 -9 19 -20 26 -11 7 -20 17 -20 23 0 5 -14
24 -30 42 -20 20 -29 40 -27 53 3 17 0 20 -15 16 -22 -5 -25 26 -3 34 17 7 21
34 5 34 -6 0 -19 -6 -31 -12 -17 -11 -22 -10 -33 5 -7 9 -18 17 -24 17 -15 0
-33 35 -24 45 4 5 2 5 -5 2 -18 -11 -43 3 -43 24 0 14 -6 18 -22 16 -19 -2
-22 2 -20 21 4 26 -3 28 -24 7 -18 -18 -44 -9 -44 16 0 15 -5 17 -29 13 -16
-4 -32 -1 -35 5 -4 6 -18 11 -32 11 -14 0 -27 7 -30 15 -4 8 -10 13 -14 10 -4
-3 -36 -2 -71 2 -57 6 -67 10 -98 44 -38 43 -81 75 -81 60z m390 -215 c19 -10
56 -30 82 -44 26 -13 76 -54 112 -91 61 -62 170 -190 178 -209 3 -8 116 -102
160 -134 18 -12 20 -19 11 -28 -6 -7 -21 -10 -35 -6 -32 9 -150 105 -155 127
-3 11 -9 19 -14 19 -12 0 -64 58 -81 89 -18 34 -182 197 -231 229 -22 15 -56
37 -76 48 -45 27 -55 50 -14 32 15 -7 44 -21 63 -32z m-221 -16 c18 -42 21
-66 19 -143 -2 -56 -7 -91 -13 -88 -16 6 -34 79 -40 161 -4 41 -8 85 -11 98
-9 42 23 23 45 -28z m113 -11 c29 -29 30 -33 25 -95 -5 -73 -67 -214 -93 -214
-18 0 -18 -4 7 93 20 80 22 159 3 225 -9 33 21 29 58 -9z m183 -124 c39 -36
55 -58 47 -62 -40 -16 -100 -75 -124 -122 -32 -61 -37 -124 -13 -190 13 -37
12 -41 -1 -41 -20 0 -65 48 -98 104 -22 38 -24 47 -14 82 5 21 26 70 45 108
25 50 36 86 40 137 l6 68 26 -14 c14 -7 53 -39 86 -70z m131 -122 c31 -36 30
-45 -7 -72 -80 -59 -75 -200 9 -278 51 -47 100 -66 164 -61 66 5 100 25 137
81 l24 37 39 -22 c21 -12 38 -29 38 -38 0 -39 -79 -125 -145 -156 -74 -35
-100 -32 -178 25 -37 28 -99 69 -138 93 -59 36 -74 52 -96 96 -22 45 -25 62
-21 115 6 74 34 132 83 175 44 39 61 40 91 5z m54 -190 c0 -20 -16 -8 -23 17
-4 17 -3 19 9 9 8 -6 14 -18 14 -26z m488 -152 c23 -20 30 -51 12 -51 -18 0
-70 43 -70 57 0 19 31 15 58 -6z m-78 -77 c0 -25 4 -43 9 -40 16 10 19 -44 10
-161 -10 -126 -2 -201 30 -265 10 -21 16 -40 13 -43 -15 -14 -33 0 -60 48 -17
29 -53 82 -81 117 -28 35 -51 67 -51 72 0 16 22 52 61 98 34 41 77 120 64 120
-2 0 -17 -19 -31 -42 -22 -36 -120 -138 -132 -138 -8 0 -92 73 -92 80 0 5 24
15 53 24 71 21 133 70 160 128 29 61 47 62 47 2z m109 -66 c23 -28 44 -62 48
-76 3 -15 -5 -58 -22 -111 -26 -83 -28 -114 -13 -195 1 -10 -3 -21 -10 -23 -7
-3 -22 17 -37 50 -25 53 -26 61 -23 231 2 97 6 176 10 176 3 0 25 -23 47 -52z
m90 -220 c-1 -58 -19 -120 -37 -126 -12 -4 -17 15 -13 58 3 38 31 120 42 120
5 0 9 -24 8 -52z"/>
<path d="M5888 5160 c-13 -15 -14 -21 -4 -29 10 -8 16 -4 24 15 19 40 10 47
-20 14z"/>
<path d="M4110 5037 c0 -4 27 -40 61 -80 80 -95 213 -294 255 -382 19 -38 34
-62 34 -53 0 30 -98 210 -163 299 -63 88 -186 230 -187 216z"/>
<path d="M1003 4672 c-7 -5 -10 -35 -8 -82 4 -120 55 -442 75 -480 6 -10 10
-28 10 -40 0 -11 7 -23 15 -26 8 -4 12 -10 9 -15 -3 -5 2 -29 11 -52 9 -24 15
-47 13 -53 -1 -5 5 -29 15 -54 9 -25 21 -64 27 -86 5 -23 17 -47 25 -54 11 -9
14 -23 9 -45 -6 -32 22 -105 45 -120 6 -3 8 -12 4 -20 -3 -9 -1 -21 5 -28 5
-6 13 -27 17 -45 4 -18 18 -40 32 -49 17 -11 23 -23 21 -38 -4 -19 0 -22 24
-21 15 1 28 2 28 3 0 16 -62 133 -69 129 -15 -10 -23 12 -11 33 7 13 7 22 0
26 -5 3 -10 15 -10 26 0 24 -37 94 -50 95 -21 3 -22 4 -11 17 11 14 2 59 -27
142 -6 17 -21 57 -32 90 -12 33 -22 67 -22 75 0 8 -2 22 -5 30 -3 8 -7 24 -8
35 -6 43 -25 132 -35 165 -6 19 -13 51 -15 70 -2 19 -13 87 -25 150 -12 63
-24 139 -27 168 -6 55 -12 65 -30 54z"/>
<path d="M6761 4046 c-1 -11 -20 -58 -42 -105 -34 -69 -58 -102 -133 -177 -81
-81 -103 -97 -196 -142 -143 -68 -206 -83 -384 -89 -114 -4 -145 -8 -130 -16
11 -7 73 -11 154 -11 162 1 250 21 387 89 161 79 288 226 337 387 10 32 15 63
13 70 -3 7 -6 5 -6 -6z"/>
<path d="M7710 3978 c-63 -5 -125 -9 -137 -9 -13 -1 -23 -6 -23 -11 0 -6 -7
-8 -15 -4 -8 3 -27 -1 -42 -8 -16 -8 -49 -23 -74 -35 -25 -11 -57 -31 -71 -43
-35 -32 -68 -117 -68 -176 0 -186 179 -403 330 -401 70 1 97 17 30 18 -128 2
-253 113 -305 271 -39 117 -16 211 64 262 138 87 332 107 626 63 138 -20 244
-29 455 -35 353 -12 609 -12 592 -1 -13 8 -64 12 -197 15 -41 2 -59 6 -58 14
2 7 -2 12 -7 12 -5 0 -10 -6 -10 -12 0 -7 -9 -2 -20 12 -20 25 -20 25 -20 3 0
-27 -20 -32 -20 -5 -1 16 -1 16 -11 0 -14 -25 -29 -22 -29 4 0 12 -3 18 -7 14
-5 -4 -8 -13 -8 -19 0 -8 -15 -11 -40 -10 -22 1 -71 3 -109 3 -59 1 -69 4 -73
20 -7 26 -23 26 -23 0 0 -24 -4 -25 -36 -4 -23 16 -26 16 -39 -2 -15 -19 -15
-19 -31 1 -11 14 -18 16 -21 8 -3 -7 -15 -13 -28 -13 -13 0 -26 6 -28 13 -4
10 -6 10 -6 0 -1 -18 -31 -16 -31 2 0 19 -16 20 -23 1 -8 -19 -57 -8 -58 13 0
10 -2 11 -6 4 -5 -14 -55 -18 -66 -6 -4 3 -17 7 -30 8 -49 4 -147 24 -166 34
-11 6 -26 10 -33 9 -7 -1 -65 -5 -128 -10z"/>
<path d="M4892 3917 c61 -58 179 -130 297 -184 247 -110 499 -123 679 -32 60
29 145 105 136 120 -3 5 -44 -11 -92 -35 -134 -68 -192 -81 -362 -80 -122 1
-160 5 -240 26 -114 31 -261 98 -362 165 -101 68 -110 71 -56 20z"/>
<path d="M9135 3845 c34 -16 64 -20 50 -6 -6 5 -26 12 -45 15 l-35 6 30 -15z"/>
<path d="M8040 3653 c-144 -20 -230 -50 -230 -79 0 -16 1 -16 19 0 28 25 203
59 274 53 85 -8 136 -47 106 -83 -10 -13 -29 -15 -95 -12 -68 2 -79 1 -61 -9
33 -18 118 -26 150 -14 15 6 32 22 39 36 10 22 8 30 -9 53 -28 38 -124 65
-193 55z"/>
<path d="M8665 3580 c-26 -11 97 -11 140 0 22 6 10 8 -45 8 -41 0 -84 -3 -95
-8z"/>
<path d="M8405 3425 c-203 -38 -407 -163 -478 -293 -15 -28 -40 -101 -57 -162
-16 -62 -31 -114 -34 -117 -2 -3 -42 -1 -88 5 -46 5 -108 7 -138 5 -100 -6
-310 -37 -310 -45 0 -5 10 -6 23 -3 26 7 153 8 220 2 26 -2 50 0 53 4 7 12
203 4 215 -8 8 -8 4 -27 -15 -68 -21 -46 -23 -56 -10 -51 9 4 23 1 30 -5 9 -8
14 -8 14 -1 0 6 -5 14 -11 17 -7 5 -5 15 5 31 9 13 16 30 16 37 0 8 7 20 15
27 9 7 13 20 10 28 -8 21 13 42 41 42 13 0 24 5 24 10 0 6 -9 10 -20 10 -13 0
-20 7 -20 18 0 28 20 43 42 31 19 -10 38 -5 38 12 0 5 -14 9 -30 9 -18 0 -33
6 -36 15 -7 17 20 91 41 115 7 8 15 24 16 34 6 31 35 43 57 23 23 -21 52 -22
52 -3 0 8 -13 17 -30 21 -37 8 -38 27 -4 50 25 16 27 16 48 -4 12 -12 25 -21
29 -21 13 0 7 38 -8 50 -12 10 -13 16 -4 26 18 21 39 17 49 -11 5 -14 17 -25
25 -25 13 0 15 8 10 43 l-7 43 49 21 c81 36 117 48 135 45 10 -2 28 2 40 9 13
7 69 13 133 15 61 1 130 3 155 4 l45 2 -40 13 c-51 17 -199 17 -290 0z"/>
<path d="M8610 3371 c0 -12 5 -21 10 -21 6 0 10 6 10 14 0 8 -4 18 -10 21 -5
3 -10 -3 -10 -14z"/>
<path d="M8541 3364 c0 -11 3 -14 6 -6 3 7 2 16 -1 19 -3 4 -6 -2 -5 -13z"/>
<path d="M8390 3340 c0 -19 3 -21 12 -12 9 9 9 15 0 24 -9 9 -12 7 -12 -12z"/>
<path d="M8301 3324 c0 -11 3 -14 6 -6 3 7 2 16 -1 19 -3 4 -6 -2 -5 -13z"/>
<path d="M1397 3273 c-10 -9 -8 -53 2 -53 5 0 14 7 21 15 20 24 -2 59 -23 38z"/>
<path d="M7099 3205 c-4 -51 -13 -75 -58 -148 -70 -116 -152 -225 -240 -319
-39 -42 -67 -79 -62 -82 26 -16 250 263 315 392 14 28 31 52 36 52 6 0 10 -19
10 -42 0 -24 5 -50 10 -58 7 -10 9 22 9 100 -1 137 -13 198 -20 105z"/>
<path d="M8715 3243 c-11 -3 -47 -17 -80 -31 -251 -109 -311 -278 -92 -258 96
9 304 53 294 62 -2 3 -69 -5 -148 -16 -204 -29 -249 -27 -249 11 0 50 98 131
233 193 87 39 102 53 42 39z"/>
<path d="M4025 3212 c-89 -13 -280 -84 -289 -108 -7 -18 -7 -18 56 5 138 51
236 72 345 74 99 2 111 0 138 -21 16 -12 37 -36 46 -52 22 -35 80 -73 170
-110 36 -15 89 -44 117 -63 44 -30 139 -63 150 -52 2 1 -20 11 -47 20 -28 9
-73 32 -99 50 -27 18 -82 47 -123 64 -76 32 -149 83 -149 105 0 23 -65 74
-108 86 -37 9 -149 11 -207 2z"/>
<path d="M1037 3173 c-12 -11 -8 -23 8 -23 8 0 15 7 15 15 0 16 -12 20 -23 8z"/>
<path d="M1200 3102 c0 -11 7 -22 15 -26 9 -3 15 0 15 8 0 7 -7 19 -15 26 -12
10 -15 9 -15 -8z"/>
<path d="M7970 3093 c0 -13 22 -33 37 -33 7 0 13 7 13 15 0 8 -4 15 -9 15 -5
0 -16 3 -25 6 -9 3 -16 2 -16 -3z"/>
<path d="M2302 3059 c-4 -4 -29 -12 -57 -18 -104 -25 -178 -79 -196 -144 -12
-47 -3 -115 20 -146 16 -21 19 -21 33 -7 9 8 18 12 22 9 3 -4 6 -1 6 5 0 6 -4
14 -10 17 -5 3 -10 26 -10 51 0 35 5 50 25 68 51 47 248 108 346 106 16 0 39
12 57 30 l32 30 -58 1 c-31 0 -90 1 -130 2 -40 1 -76 -1 -80 -4z"/>
<path d="M7965 3020 c3 -5 10 -10 16 -10 5 0 9 5 9 10 0 6 -7 10 -16 10 -8 0
-12 -4 -9 -10z"/>
<path d="M7170 2851 c0 -5 5 -13 10 -16 18 -11 10 -34 -17 -49 -16 -8 -59 -44
-98 -81 -50 -47 -94 -77 -155 -106 -47 -22 -96 -46 -110 -53 -17 -8 -29 -26
-38 -56 -26 -90 -36 -104 -89 -122 -136 -48 -219 -203 -189 -355 10 -52 -1
-55 -53 -14 -20 15 -51 36 -69 45 -51 26 -173 46 -280 46 -87 0 -103 3 -149
28 -30 15 -66 46 -87 73 -45 59 -93 80 -168 72 -52 -5 -56 -4 -84 26 -42 45
-139 63 -309 60 l-130 -3 -3 24 c-11 103 -27 116 -27 23 l0 -56 -40 -12 c-49
-14 -164 -73 -225 -114 -60 -41 -210 -177 -245 -223 l-29 -38 -120 0 c-67 0
-179 -7 -251 -15 -71 -8 -173 -15 -226 -15 -92 0 -124 -3 -359 -32 -58 -7
-118 -11 -135 -10 -23 2 -35 -5 -49 -25 -19 -26 -19 -26 -1 -19 20 7 186 25
297 31 37 2 71 6 75 8 4 3 38 7 74 11 55 5 68 3 73 -10 5 -14 8 -14 21 -1 11
11 37 14 105 13 50 -1 93 1 96 6 10 16 46 8 51 -12 3 -11 9 -20 13 -20 4 0 10
9 13 20 6 24 47 28 47 5 0 -8 5 -15 10 -15 6 0 10 6 10 14 0 18 25 27 38 14 6
-6 12 -6 16 1 9 15 76 14 76 0 0 -8 4 -8 14 0 10 8 38 11 81 8 52 -4 73 -11
92 -29 13 -12 30 -23 36 -24 7 0 18 -2 26 -2 9 -1 12 -11 9 -27 -6 -27 9 -35
18 -10 4 8 17 15 31 15 22 0 24 -3 19 -27 l-7 -28 16 23 c19 26 37 28 55 7 7
-8 21 -15 31 -15 11 0 27 -4 37 -9 139 -68 156 -82 172 -150 10 -41 8 -54 -9
-102 -21 -55 -60 -109 -79 -109 -6 0 -12 -5 -14 -11 -2 -6 -37 -14 -77 -20
-98 -12 -105 -21 -10 -13 107 10 159 46 200 139 29 66 22 143 -18 194 -31 39
-221 145 -280 157 -44 8 -42 28 10 79 41 41 94 65 145 65 15 0 21 4 16 11 -4
8 -30 10 -75 7 -61 -5 -70 -3 -84 16 -15 21 -15 21 -14 -4 2 -48 0 -53 -26
-48 -22 5 -25 2 -19 -14 6 -22 -21 -88 -37 -88 -6 0 -31 12 -55 26 l-45 27 23
24 c30 33 169 148 188 156 8 4 38 21 65 37 28 16 57 33 65 36 8 3 22 10 30 15
42 26 107 50 127 46 13 -2 24 2 27 9 3 8 20 14 40 14 19 0 38 4 41 10 3 5 23
10 43 10 20 0 60 2 87 5 95 9 170 -4 216 -38 40 -29 48 -31 113 -28 68 2 73 1
105 -29 37 -36 55 -82 38 -99 -8 -8 -8 -11 0 -11 6 0 13 6 16 13 4 9 8 9 23
-1 11 -6 26 -15 34 -18 8 -4 33 -15 56 -25 31 -15 61 -19 120 -18 83 2 187
-14 241 -36 17 -7 56 -32 86 -54 57 -44 72 -48 111 -30 20 10 29 8 58 -14 56
-42 169 -97 200 -97 16 0 45 7 66 16 139 59 292 105 381 114 244 25 319 44
135 34 -158 -8 -332 -38 -466 -81 l-118 -36 -52 24 c-29 13 -78 41 -110 62
-32 20 -65 37 -73 37 -35 0 -25 131 17 215 20 41 95 125 111 125 5 0 6 -15 2
-32 l-6 -33 20 33 c16 24 28 32 44 30 18 -2 22 1 20 20 -2 18 2 22 28 22 28 0
30 2 24 29 -5 22 -2 30 11 35 13 5 15 9 6 18 -17 17 -15 58 4 65 10 4 22 -1
29 -10 17 -23 28 -21 15 3 -8 15 -6 21 9 30 11 5 26 10 34 10 8 0 22 9 32 20
10 11 26 20 35 20 10 0 21 7 24 15 3 9 22 23 41 31 19 8 35 18 35 23 0 15 30
41 46 41 8 0 12 -4 9 -10 -3 -5 -1 -10 4 -10 6 0 11 7 11 16 0 8 11 30 25 48
14 18 25 38 25 44 0 5 9 8 20 5 26 -7 70 4 70 18 0 9 -16 7 -57 -8 -7 -3 -17
6 -22 20 -10 26 -31 45 -31 28z"/>
<path d="M1005 2840 c3 -5 8 -10 11 -10 2 0 4 5 4 10 0 6 -5 10 -11 10 -5 0
-7 -4 -4 -10z"/>
<path d="M8680 2840 c-99 -12 -188 -38 -263 -76 -38 -19 -79 -34 -92 -34 -34
0 -76 -18 -103 -43 -20 -19 -35 -21 -130 -23 -92 -1 -117 -5 -174 -29 -56 -22
-68 -31 -68 -50 0 -31 95 -117 171 -155 53 -27 198 -74 206 -67 2 2 -35 22
-81 45 -57 29 -108 64 -160 113 -42 39 -76 75 -76 79 0 18 80 33 186 34 105 1
113 3 148 29 21 17 56 31 85 36 26 4 64 17 84 30 94 58 240 90 417 91 64 1 97
4 85 9 -33 14 -165 20 -235 11z"/>
<path d="M3855 2810 c3 -5 38 -25 78 -45 178 -90 280 -151 290 -172 14 -32 -8
-100 -44 -134 -15 -14 -66 -43 -113 -63 -118 -50 -205 -50 -415 1 -17 4 -22 2
-17 -6 4 -6 13 -11 20 -11 8 0 40 -12 72 -27 53 -25 70 -28 164 -28 99 0 110
2 199 39 119 50 155 81 176 151 8 30 13 66 9 80 -7 30 -59 77 -115 106 -87 44
-314 126 -304 109z"/>
<path d="M1000 2800 c0 -5 5 -10 11 -10 5 0 7 5 4 10 -3 6 -8 10 -11 10 -2 0
-4 -4 -4 -10z"/>
<path d="M9110 2801 c-73 -22 -150 -83 -180 -140 -49 -97 -122 -159 -267 -227
-77 -37 -112 -61 -164 -113 -43 -43 -69 -78 -73 -99 -8 -36 10 -106 25 -96 5
3 7 15 3 26 -20 66 56 164 181 233 175 95 219 131 293 235 81 115 116 143 216
175 31 10 35 13 16 13 -14 0 -36 -3 -50 -7z"/>
<path d="M5138 2760 c-12 -40 -10 -116 3 -103 5 5 9 37 7 69 -2 44 -5 53 -10
34z"/>
<path d="M7770 2646 c0 -2 7 -6 15 -10 8 -3 15 -1 15 4 0 6 -7 10 -15 10 -8 0
-15 -2 -15 -4z"/>
<path d="M7080 2630 c0 -5 5 -10 10 -10 6 0 10 5 10 10 0 6 -4 10 -10 10 -5 0
-10 -4 -10 -10z"/>
<path d="M6317 2540 c-13 -43 -4 -283 11 -288 9 -3 12 19 11 90 -2 132 -13
230 -22 198z"/>
<path d="M7019 2493 c-8 -10 -26 -34 -39 -54 -31 -47 -125 -110 -218 -144 -39
-15 -79 -36 -87 -48 -19 -27 -21 -121 -3 -115 7 3 15 18 19 34 10 53 26 69
111 111 105 53 169 108 206 178 32 58 34 66 11 38z"/>
<path d="M1785 2455 c-94 -20 -155 -42 -155 -56 0 -5 11 -9 25 -9 17 0 25 -6
25 -17 0 -10 5 -25 11 -33 7 -11 9 -7 7 18 -3 32 0 35 41 49 24 8 57 12 72 9
15 -3 29 -1 31 5 2 6 33 19 68 29 l65 19 -65 -1 c-36 0 -92 -6 -125 -13z"/>
<path d="M1826 2382 c-3 -6 -1 -14 5 -17 15 -10 25 3 12 16 -7 7 -13 7 -17 1z"/>
<path d="M7420 2315 c-11 -29 -17 -31 -42 -8 -10 9 -18 11 -18 5 0 -14 32 -32
58 -32 11 0 22 9 25 20 4 17 14 20 64 20 66 0 269 -18 296 -26 10 -3 17 -15
17 -29 0 -32 28 -62 75 -78 22 -8 49 -18 60 -22 18 -7 17 -5 -4 18 -13 15 -34
30 -45 33 -33 10 -56 35 -56 60 0 13 -5 26 -10 29 -20 12 -226 35 -318 35 -90
0 -93 -1 -102 -25z"/>
<path d="M7042 2264 c-24 -17 -28 -64 -6 -71 7 -2 10 6 6 22 -3 16 2 33 13 45
22 24 17 25 -13 4z"/>
<path d="M4930 2146 c0 -9 5 -16 10 -16 6 0 10 4 10 9 0 6 -4 13 -10 16 -5 3
-10 -1 -10 -9z"/>
<path d="M4852 2084 c2 -15 9 -29 16 -32 10 -3 13 4 10 24 -2 15 -9 29 -16 32
-10 3 -13 -4 -10 -24z"/>
<path d="M6020 2015 c0 -10 11 -15 35 -15 19 0 52 -7 74 -16 22 -8 52 -14 68
-12 25 4 26 5 8 12 -11 4 -36 16 -56 27 -45 24 -129 26 -129 4z"/>
<path d="M7955 1972 c-69 -25 -117 -58 -207 -144 -92 -89 -158 -126 -300 -167
-145 -42 -190 -63 -242 -111 -60 -55 -80 -100 -78 -175 3 -79 24 -160 43 -160
15 0 15 8 4 93 -7 44 -5 52 9 52 20 0 21 19 1 26 -8 4 -15 15 -15 25 0 22 4
23 30 9 28 -15 39 10 12 28 -32 21 -28 34 26 84 46 43 116 74 242 108 25 7 53
16 62 21 28 14 46 11 58 -11 11 -21 40 -28 40 -9 0 6 -5 19 -10 29 -16 30 10
37 31 9 16 -20 20 -22 28 -10 6 10 6 22 0 33 -14 26 -1 41 28 34 31 -8 48 1
33 19 -15 18 -4 35 20 35 14 0 19 6 17 21 -1 12 6 26 15 32 14 9 20 8 32 -8
14 -19 15 -19 21 -2 4 9 5 24 1 32 -6 17 21 48 35 40 5 -4 9 -13 9 -21 0 -8 5
-14 11 -14 6 0 8 9 4 20 -8 25 10 50 37 50 15 0 18 -5 13 -20 -3 -11 -2 -20 4
-20 5 0 11 12 13 28 2 21 9 28 30 30 26 3 27 2 21 -29 -5 -24 -3 -31 8 -27 7
2 16 15 19 29 4 17 14 25 33 27 31 4 33 0 11 -33 -15 -23 -15 -25 0 -31 21 -8
26 -3 30 32 3 27 6 29 52 30 79 1 129 -9 129 -28 0 -27 13 -31 24 -9 10 17 15
19 35 10 17 -8 29 -8 46 1 32 17 17 25 -82 43 -119 23 -316 22 -383 -1z"/>
<path d="M8191 1926 c-8 -10 -9 -16 -1 -21 5 -3 13 1 16 10 9 22 -1 29 -15 11z"/>
<path d="M8711 1856 c-35 -36 -60 -69 -57 -75 5 -7 -1 -11 -14 -11 -13 0 -28
-12 -38 -30 -9 -16 -29 -35 -44 -41 -21 -9 -25 -15 -19 -28 9 -17 6 -32 -12
-69 -8 -17 -8 -25 0 -30 6 -4 13 -16 16 -27 5 -19 5 -19 12 3 4 12 15 22 26
22 23 0 23 -4 3 -43 -9 -18 -20 -39 -24 -47 -4 -8 -13 -15 -21 -15 -9 0 -13
-9 -11 -27 5 -43 -17 -43 -36 1 -17 37 -20 39 -37 27 -15 -10 -17 -21 -11 -59
5 -32 4 -47 -4 -47 -6 0 -9 4 -6 9 9 14 -18 31 -34 21 -12 -7 -12 -11 0 -25
17 -21 20 -55 5 -55 -13 0 -45 -32 -45 -44 0 -5 14 -6 30 -4 18 3 35 -1 41 -9
15 -18 39 -17 39 2 0 8 4 15 9 15 16 0 24 -21 12 -33 -19 -19 -13 -46 9 -40
18 5 19 2 14 -25 -9 -46 13 -50 54 -8 35 35 36 36 23 72 -7 19 -11 37 -9 39 1
2 17 5 35 7 32 4 83 50 83 76 0 17 -19 15 -26 -3 -4 -8 -12 -15 -19 -15 -7 0
-22 -12 -33 -27 -17 -23 -22 -25 -35 -15 -9 7 -24 12 -33 10 -11 -2 -20 4 -22
15 -2 9 2 17 9 17 6 0 17 8 24 17 11 14 16 15 28 5 12 -11 22 -8 53 13 22 15
42 35 46 46 4 10 11 19 16 19 13 0 23 -55 16 -90 -7 -34 8 -40 43 -15 16 12
21 25 21 60 -1 24 5 51 12 60 7 8 10 24 7 34 -3 14 -1 18 10 14 9 -4 16 2 20
16 3 12 11 20 17 18 45 -17 55 -17 68 1 7 11 23 22 36 26 19 7 22 4 22 -23 0
-17 5 -31 11 -31 18 0 369 361 369 380 0 20 -179 27 -181 8 -1 -7 -2 -21 -3
-30 -1 -10 -4 -18 -8 -18 -5 0 -12 0 -18 0 -5 0 -10 7 -10 16 0 8 -4 12 -10 9
-5 -3 -10 1 -10 9 0 10 6 13 15 10 8 -4 15 -2 15 4 0 15 -65 22 -225 22 l-151
0 -63 -64z m170 -19 c-8 -8 -11 -7 -11 4 0 20 13 34 18 19 3 -7 -1 -17 -7 -23z
m308 -36 c9 -16 8 -18 -9 -14 -21 5 -25 15 -13 26 9 10 11 9 22 -12z m-109
-26 c0 -7 -10 -15 -22 -17 -15 -2 -24 -11 -26 -25 -2 -13 -9 -23 -16 -23 -7 0
-26 -13 -42 -30 -34 -35 -44 -37 -44 -11 0 31 -21 37 -42 11 -22 -27 -44 -15
-33 19 5 16 18 22 55 27 27 4 51 13 54 20 3 8 12 14 19 14 8 0 20 6 27 14 11
15 48 25 63 18 4 -2 7 -9 7 -17z m68 -39 c0 -23 -4 -24 -32 -19 -59 11 -57 26
4 36 14 2 26 5 26 6 1 0 2 -10 2 -23z m-458 -21 c0 -8 -4 -15 -10 -15 -5 0
-10 7 -10 15 0 8 5 15 10 15 6 0 10 -7 10 -15z m216 -80 c-25 -19 -36 -19 -36
0 0 10 10 15 28 15 26 -1 26 -1 8 -15z m-96 -85 c0 -5 -4 -10 -10 -10 -5 0
-10 5 -10 10 0 6 5 10 10 10 6 0 10 -4 10 -10z m-163 -25 c-7 -16 -37 -21 -37
-5 0 10 32 31 39 25 2 -2 1 -11 -2 -20z m-27 -50 c0 -8 -9 -19 -20 -25 -17 -9
-20 -8 -20 8 0 10 3 22 7 25 12 12 33 7 33 -8z m-40 -60 c0 -8 -4 -15 -10 -15
-5 0 -10 7 -10 15 0 8 5 15 10 15 6 0 10 -7 10 -15z m-90 -115 c-11 -21 -22
-25 -33 -13 -9 9 12 33 30 33 11 0 11 -4 3 -20z m80 -30 c0 -5 -2 -10 -4 -10
-3 0 -8 5 -11 10 -3 6 -1 10 4 10 6 0 11 -4 11 -10z"/>
<path d="M6052 1883 c-31 -12 6 -23 81 -23 129 -1 208 -15 229 -42 17 -23 18
-23 18 -2 0 31 -30 53 -90 64 -54 10 -215 13 -238 3z"/>
<path d="M6660 1775 c-36 -7 -81 -20 -100 -28 -54 -23 -149 -97 -252 -195
-148 -139 -177 -154 -365 -181 -103 -15 -171 -44 -238 -102 -33 -27 -99 -70
-146 -95 -99 -51 -161 -101 -178 -143 l-13 -29 -136 5 c-117 4 -155 1 -259
-20 -131 -25 -238 -23 -272 7 -9 7 -31 17 -49 21 -18 4 -52 18 -76 31 -28 16
-47 21 -51 14 -3 -5 6 -15 22 -21 94 -35 167 -89 147 -109 -5 -5 -67 -15 -138
-22 -99 -9 -122 -14 -100 -20 40 -12 167 -1 309 27 211 41 279 48 433 42 148
-5 172 -10 377 -73 80 -25 95 -27 95 -15 0 14 -76 49 -179 82 -40 13 -76 30
-79 37 -10 26 105 124 213 180 22 12 63 42 90 68 81 75 226 130 241 90 3 -9
10 -16 16 -16 5 0 6 6 2 13 -6 10 -4 10 7 0 18 -18 26 -16 32 7 6 25 42 26 56
3 10 -17 10 -17 11 -1 0 26 19 32 40 13 18 -16 38 -6 25 14 -3 5 -1 12 4 15 5
4 13 1 17 -6 6 -9 10 -5 14 12 8 32 38 38 57 10 20 -29 40 -11 22 19 -11 16
-11 23 -1 33 13 13 24 4 35 -27 3 -5 8 -7 12 -3 5 5 0 17 -10 28 -18 19 -16
21 61 96 43 42 95 87 114 100 19 13 51 35 70 48 19 14 45 25 57 25 12 1 25 6
28 11 11 18 47 11 52 -10 6 -24 23 -16 23 11 0 29 33 20 40 -11 3 -14 14 -26
23 -28 14 -3 16 2 11 26 -6 30 -6 30 40 30 25 -1 46 -5 46 -10 0 -5 11 -6 25
-2 32 8 116 -12 183 -43 58 -27 76 -25 47 7 -57 63 -323 112 -455 85z"/>
<path d="M2540 1742 c0 -14 11 -21 26 -15 21 8 17 23 -6 23 -11 0 -20 -4 -20
-8z"/>
<path d="M5302 1743 c-7 -2 -17 -14 -24 -26 -11 -21 -11 -21 17 -3 22 15 39
17 86 12 32 -4 60 -3 63 2 10 16 -109 29 -142 15z"/>
<path d="M5665 1665 c22 -21 66 -55 98 -77 49 -33 58 -44 55 -66 -3 -28 -28
-44 -28 -18 0 9 -5 16 -11 16 -6 0 -9 -9 -6 -20 9 -36 -13 -49 -97 -55 -68 -5
-78 -4 -73 10 4 8 2 15 -3 15 -6 0 -10 -7 -10 -15 0 -18 -41 -20 -58 -3 -9 9
-12 9 -12 0 0 -7 -11 -12 -25 -12 -16 0 -25 6 -25 15 0 8 -4 15 -9 15 -5 0
-11 -7 -15 -15 -8 -22 -37 -18 -43 5 -3 11 -10 20 -15 20 -5 0 -7 -8 -3 -19
10 -32 -24 -35 -36 -3 l-11 27 -11 -22 c-5 -13 -16 -23 -24 -23 -8 0 -12 4 -8
9 3 5 1 12 -4 16 -6 3 -15 -4 -21 -15 -6 -11 -18 -20 -26 -20 -8 0 -12 -4 -9
-10 8 -13 445 -13 499 0 49 11 87 38 105 75 12 25 12 32 0 54 -13 24 -111 96
-184 136 -27 15 -26 12 10 -20z"/>
<path d="M3851 1660 c-121 -11 -178 -27 -198 -57 -14 -22 -14 -25 3 -44 27
-29 47 -39 154 -71 236 -71 517 -118 704 -118 129 0 117 19 -15 25 -52 2 -110
7 -129 10 -19 3 -57 7 -85 10 -27 2 -66 7 -85 11 -19 4 -42 8 -50 10 -8 1 -33
6 -55 10 -22 4 -46 12 -53 17 -8 6 -26 11 -40 12 -23 0 -27 5 -30 33 -4 39
-32 45 -32 7 0 -20 -5 -25 -24 -25 -14 0 -28 5 -31 10 -3 6 -17 10 -31 10 -25
0 -34 25 -11 33 6 2 9 8 5 12 -4 4 -16 -3 -27 -16 -16 -20 -22 -22 -42 -12
-13 6 -35 14 -49 17 -14 4 -34 13 -44 21 -29 22 -6 41 72 56 120 23 483 13
610 -18 12 -3 22 -1 22 5 0 34 -352 68 -539 52z"/>
<path d="M6557 1639 c-5 -17 -9 -19 -26 -10 -11 6 -22 11 -25 11 -11 0 -6 -28
7 -39 18 -14 67 8 67 31 0 25 -17 31 -23 7z"/>
<path d="M7540 1626 c0 -8 5 -18 10 -21 6 -3 10 1 10 9 0 8 -4 18 -10 21 -5 3
-10 -1 -10 -9z"/>
<path d="M7460 1607 c0 -8 9 -22 20 -32 19 -17 20 -17 26 0 5 12 1 23 -11 31
-24 18 -35 18 -35 1z"/>
<path d="M3760 1574 c0 -8 5 -12 10 -9 6 3 10 10 10 16 0 5 -4 9 -10 9 -5 0
-10 -7 -10 -16z"/>
<path d="M2737 1574 c-9 -9 21 -64 35 -64 6 0 4 8 -6 19 -13 14 -14 20 -5 23
7 2 9 10 5 16 -8 13 -19 15 -29 6z"/>
<path d="M6440 1571 c0 -13 29 -35 37 -28 7 8 -15 37 -28 37 -5 0 -9 -4 -9 -9z"/>
<path d="M2794 1529 c-8 -14 18 -31 30 -19 9 9 0 30 -14 30 -5 0 -12 -5 -16
-11z"/>
<path d="M6380 1521 c0 -15 28 -33 40 -26 8 5 8 11 -1 21 -13 15 -39 19 -39 5z"/>
<path d="M4021 1504 c0 -11 3 -14 6 -6 3 7 2 16 -1 19 -3 4 -6 -2 -5 -13z"/>
<path d="M4160 1484 c0 -8 5 -12 10 -9 6 4 8 11 5 16 -9 14 -15 11 -15 -7z"/>
<path d="M7290 1490 c0 -5 5 -10 10 -10 6 0 10 5 10 10 0 6 -4 10 -10 10 -5 0
-10 -4 -10 -10z"/>
<path d="M5640 1480 c0 -5 5 -10 10 -10 6 0 10 5 10 10 0 6 -4 10 -10 10 -5 0
-10 -4 -10 -10z"/>
<path d="M6345 1480 c3 -5 10 -10 16 -10 5 0 9 5 9 10 0 6 -7 10 -16 10 -8 0
-12 -4 -9 -10z"/>
<path d="M8911 1476 c-10 -12 -8 -13 8 -9 12 3 21 9 21 14 0 14 -16 11 -29 -5z"/>
<path d="M4307 1450 c3 -11 9 -17 14 -14 14 8 10 34 -5 34 -9 0 -12 -7 -9 -20z"/>
<path d="M2870 1446 c0 -8 152 -106 164 -106 7 0 73 -26 147 -58 161 -71 297
-117 403 -137 107 -21 409 -39 528 -32 102 6 170 -1 307 -34 46 -11 85 -18 88
-16 2 3 -12 15 -32 27 -20 12 -39 20 -42 16 -3 -3 -15 0 -27 6 -11 7 -25 11
-30 10 -14 -4 -36 20 -29 32 3 6 -3 3 -14 -7 -17 -15 -25 -16 -42 -7 -12 6
-21 18 -22 28 0 14 -2 14 -6 2 -3 -8 -9 -17 -14 -20 -9 -6 -281 -4 -414 3 -95
5 -242 28 -295 46 -14 5 -45 14 -70 22 -25 7 -49 16 -54 21 -6 4 -20 8 -33 8
-13 0 -31 4 -41 9 -36 18 -70 31 -147 57 -91 30 -225 95 -244 118 -12 14 -81
24 -81 12z"/>
<path d="M8343 1440 c-28 -11 -30 -30 -4 -30 10 0 21 9 24 20 3 11 4 20 4 19
-1 0 -12 -4 -24 -9z"/>
<path d="M8270 1420 c0 -5 5 -10 10 -10 6 0 10 5 10 10 0 6 -4 10 -10 10 -5 0
-10 -4 -10 -10z"/>
<path d="M6935 1403 c-190 -25 -294 -59 -333 -108 -23 -28 -30 -75 -12 -75 6
0 10 8 10 19 0 55 76 95 247 131 149 30 191 47 88 33z"/>
<path d="M6329 1355 c-46 -15 -110 -47 -159 -80 -76 -51 -87 -55 -140 -55
-129 0 -258 -46 -315 -113 -46 -53 -64 -130 -42 -174 27 -51 76 -68 207 -71
134 -3 132 9 -7 31 -144 24 -179 49 -164 118 21 93 159 169 306 169 70 0 105
15 185 81 31 25 85 56 120 69 62 22 115 51 95 50 -6 -1 -44 -12 -86 -25z"/>
<path d="M8694 1318 c-4 -5 1 -17 10 -26 14 -14 18 -14 31 -2 12 13 11 16 -10
27 -17 7 -27 8 -31 1z"/>
<path d="M3536 1254 c-9 -24 -7 -28 9 -14 17 14 20 30 6 30 -5 0 -12 -7 -15
-16z"/>
<path d="M6993 1244 c-34 -17 -163 -147 -163 -164 0 -20 16 -9 57 39 58 67
129 114 154 100 11 -5 19 -19 19 -29 0 -11 7 -20 15 -20 21 0 19 33 -6 64 -24
30 -32 31 -76 10z"/>
<path d="M8656 1245 c4 -8 7 -15 9 -15 1 0 8 7 15 15 10 13 9 15 -8 15 -15 0
-20 -5 -16 -15z"/>
<path d="M3667 1233 c-4 -3 -7 -11 -7 -17 0 -6 5 -5 12 2 6 6 9 14 7 17 -3 3
-9 2 -12 -2z"/>
<path d="M8320 1189 c0 -5 5 -7 10 -4 6 3 10 8 10 11 0 2 -4 4 -10 4 -5 0 -10
-5 -10 -11z"/>
<path d="M8210 1171 c0 -5 5 -13 10 -16 6 -3 10 -2 10 4 0 5 -4 13 -10 16 -5
3 -10 2 -10 -4z"/>
<path d="M7750 1149 c0 -5 5 -7 10 -4 6 3 10 8 10 11 0 2 -4 4 -10 4 -5 0 -10
-5 -10 -11z"/>
<path d="M6322 1095 c-118 -37 -185 -122 -133 -169 22 -20 107 -31 141 -18 21
8 17 10 -40 20 -35 7 -71 19 -79 27 -15 15 -12 19 21 50 27 25 62 42 128 62
49 15 90 31 90 35 0 12 -81 8 -128 -7z"/>
<path d="M8340 1100 c0 -5 6 -10 14 -10 8 0 18 5 21 10 3 6 -3 10 -14 10 -12
0 -21 -4 -21 -10z"/>
<path d="M8310 1026 c0 -8 7 -16 15 -20 10 -4 15 1 15 14 0 11 -7 20 -15 20
-8 0 -15 -6 -15 -14z"/>
<path d="M6360 663 c-19 -2 -57 -8 -85 -14 -70 -15 -256 -38 -405 -49 -69 -5
-147 -12 -173 -16 -45 -6 -47 -7 -33 -23 17 -18 17 -71 1 -83 -5 -4 -18 -8
-28 -8 -14 0 -16 5 -11 25 5 19 2 25 -11 25 -13 0 -16 -6 -13 -25 4 -20 -1
-30 -24 -47 -27 -19 -28 -22 -14 -36 12 -13 20 -13 40 -4 37 17 42 -3 12 -43
-14 -18 -26 -38 -26 -44 0 -12 35 -33 43 -25 12 13 47 -8 47 -28 0 -18 4 -20
31 -14 17 3 35 6 40 6 5 0 9 6 9 14 0 16 18 31 27 23 2 -3 7 -27 10 -53 6 -57
28 -94 57 -94 68 1 209 20 221 30 8 7 21 10 29 7 9 -4 20 7 31 30 12 25 20 32
28 24 7 -7 6 -15 -3 -26 -29 -35 5 -36 176 -5 180 32 259 51 233 57 -20 5 -37
41 -31 66 3 14 10 17 28 13 20 -5 24 -3 24 16 0 12 8 30 18 41 16 20 16 20 -2
14 -15 -6 -17 -3 -13 12 3 11 -1 25 -8 31 -7 5 -12 18 -11 28 3 25 28 75 46
89 13 10 12 14 -4 32 -15 17 -26 19 -65 14 -25 -3 -47 -10 -49 -15 -8 -20 -32
-6 -32 18 0 22 -2 25 -15 14 -13 -10 -15 -9 -15 9 0 22 -2 22 -80 14z m-407
-114 c-11 -12 -26 -18 -32 -15 -19 12 -12 25 17 29 15 2 29 5 32 6 2 0 -5 -9
-17 -20z m292 10 c4 -6 5 -12 2 -15 -7 -7 -37 7 -37 17 0 13 27 11 35 -2z
m-72 -33 c6 -15 -19 -43 -29 -33 -8 8 5 47 16 47 4 0 10 -6 13 -14z m55 -17
c-2 -6 -8 -10 -13 -10 -5 0 -11 4 -13 10 -2 6 4 11 13 11 9 0 15 -5 13 -11z
m-65 -49 c-13 -5 -23 -14 -23 -19 0 -6 -7 -8 -15 -5 -22 9 -18 22 8 27 39 8
53 6 30 -3z m63 -34 c22 -23 17 -32 -23 -34 -21 -2 -39 -4 -40 -6 -2 -2 -5
-20 -7 -40 -4 -43 -16 -61 -16 -24 0 14 -6 31 -14 37 -12 10 -17 8 -27 -10
-10 -20 -12 -20 -21 -5 -20 36 9 65 68 66 12 0 27 7 34 15 16 19 27 19 46 1z
m-184 -51 c0 -5 -5 -11 -11 -13 -6 -2 -11 4 -11 13 0 9 5 15 11 13 6 -2 11 -8
11 -13z m-236 -35 c1 -32 -10 -40 -20 -15 -6 16 2 45 13 45 3 0 6 -14 7 -30z
m94 -2 l21 -23 -32 -8 c-38 -10 -39 -9 -32 26 6 33 16 34 43 5z"/>
<path d="M5336 572 c-9 -15 6 -52 20 -52 8 0 14 3 14 8 0 4 3 17 6 30 5 17 2
22 -14 22 -12 0 -23 -4 -26 -8z"/>
<path d="M5406 551 c10 -38 7 -62 -11 -80 -13 -14 -15 -13 -15 9 l0 23 -23
-21 c-13 -12 -28 -22 -34 -22 -7 0 -15 -9 -18 -20 -7 -21 -25 -26 -40 -11 -6
5 -25 7 -43 4 -25 -4 -33 -11 -38 -32 -3 -14 -10 -34 -15 -44 -13 -24 -2 -39
22 -32 11 4 19 2 19 -4 0 -6 -5 -11 -10 -11 -6 0 -8 -16 -4 -42 9 -57 21 -79
39 -72 26 10 16 -16 -10 -28 -41 -18 -10 -27 95 -27 61 0 97 4 102 12 5 9 15
9 41 -1 68 -24 105 -10 122 48 l7 25 -28 -25 c-16 -14 -32 -29 -36 -35 -5 -6
-8 -5 -8 3 0 6 -7 12 -15 12 -8 0 -15 5 -15 10 0 6 -9 10 -19 10 -11 0 -22 4
-25 9 -10 16 5 41 24 41 11 0 22 5 26 11 3 6 19 9 34 5 17 -3 32 0 39 8 14 16
4 26 -25 26 -16 0 -24 7 -26 22 -4 33 -36 35 -48 4 -5 -14 -14 -26 -20 -26
-14 0 -13 47 2 56 8 5 5 11 -7 20 -30 22 -11 26 44 10 47 -14 52 -14 58 1 3 9
0 21 -8 27 -9 6 -19 20 -23 31 -8 19 -8 19 -17 -4 -7 -19 -12 -21 -24 -11 -8
6 -18 9 -24 6 -5 -3 -20 -2 -33 3 l-23 10 26 0 c35 1 45 16 54 78 l7 53 -42
-2 c-39 -1 -41 -3 -34 -27z m-20 -157 c-8 -22 -41 -13 -41 11 -1 11 4 23 9 27
14 9 39 -20 32 -38z m-52 -18 c3 -13 8 -31 12 -39 3 -9 -3 -16 -16 -20 -17 -4
-21 -12 -18 -33 2 -15 -2 -29 -9 -31 -16 -6 -36 35 -27 55 9 21 5 54 -7 67
-17 17 -9 25 25 25 27 0 35 -5 40 -24z m76 -45 c15 -45 8 -61 -26 -61 -28 0
-32 15 -6 29 14 8 15 13 5 30 -17 27 -16 41 0 41 8 0 20 -18 27 -39z m-90
-115 c0 -15 -18 -31 -26 -23 -7 7 7 37 17 37 5 0 9 -6 9 -14z m45 5 c7 -12
-12 -24 -25 -16 -11 7 -4 25 10 25 5 0 11 -4 15 -9z m47 -33 c-7 -7 -12 -8
-12 -2 0 14 12 26 19 19 2 -3 -1 -11 -7 -17z"/>
<path d="M5288 523 c-16 -19 -14 -43 4 -43 16 0 37 32 31 47 -7 18 -17 16 -35
-4z"/>
<path d="M6647 414 c-11 -11 3 -24 18 -18 8 4 12 10 9 15 -6 11 -18 12 -27 3z"/>
<path d="M6590 305 c0 -8 7 -15 15 -15 9 0 12 6 9 15 -4 8 -10 15 -15 15 -5 0
-9 -7 -9 -15z"/>
<path d="M5043 232 c-23 -3 -30 -16 -15 -26 8 -4 49 22 41 27 -2 1 -14 1 -26
-1z"/>
<path d="M5500 229 c0 -5 9 -9 20 -9 11 0 20 2 20 4 0 2 -9 6 -20 9 -11 3 -20
1 -20 -4z"/>
<path d="M5758 175 c-3 -16 -1 -25 7 -25 7 0 15 11 17 25 3 16 1 25 -7 25 -7
0 -15 -11 -17 -25z"/>
<path d="M4998 163 c7 -3 16 -2 19 1 4 3 -2 6 -13 5 -11 0 -14 -3 -6 -6z"/>
<path d="M5080 160 c0 -5 5 -10 10 -10 6 0 10 5 10 10 0 6 -4 10 -10 10 -5 0
-10 -4 -10 -10z"/>
<path d="M5710 155 c0 -9 6 -12 15 -9 8 4 15 10 15 15 0 5 -7 9 -15 9 -8 0
-15 -7 -15 -15z"/>
</g>
</svg>
